<?xml version="1.0" standalone="no"?>
<!DOCTYPE svg PUBLIC "-//W3C//DTD SVG 20010904//EN"
 "http://www.w3.org/TR/2001/REC-SVG-20010904/DTD/svg10.dtd">
<svg version="1.0" xmlns="http://www.w3.org/2000/svg"
 width="700.000000pt" height="700.000000pt" viewBox="0 0 700.000000 700.000000"
 preserveAspectRatio="xMidYMid meet">
<metadata>
Created by potrace 1.11, written by Peter Selinger 2001-2013
</metadata>
<g transform="translate(0.000000,700.000000) scale(0.100000,-0.100000)"
fill="#000000" stroke="none">
<path d="M3267 6159 c-1127 -100 -2072 -901 -2353 -1995 -59 -233 -77 -386
-78 -659 0 -268 13 -388 66 -610 117 -492 353 -918 707 -1274 421 -424 931
-679 1536 -767 168 -25 544 -25 710 -1 421 63 778 198 1115 421 170 113 273
198 416 340 340 341 582 762 700 1222 60 238 78 386 78 664 -1 278 -18 429
-78 664 -238 926 -958 1658 -1881 1911 -293 80 -637 111 -938 84z m603 -73
c178 -28 410 -90 587 -157 l24 -9 -31 -59 c-17 -32 -47 -73 -66 -91 l-34 -34
-77 12 c-148 23 -235 12 -274 -34 -22 -26 -37 -73 -45 -142 l-6 -57 39 -1 c89
-3 108 -36 117 -216 6 -105 5 -131 -8 -157 -25 -48 -71 -95 -146 -151 -37 -28
-71 -58 -74 -66 -3 -9 10 -58 29 -110 19 -51 35 -95 35 -98 0 -3 -17 -14 -38
-25 l-39 -20 -16 74 c-8 40 -25 96 -38 124 -20 47 -24 51 -56 51 -35 0 -72
-15 -85 -34 -15 -21 4 -72 60 -161 52 -82 57 -95 57 -146 0 -50 -4 -61 -41
-110 -67 -88 -153 -167 -220 -200 -58 -30 -84 -58 -84 -94 0 -8 14 -56 31
-106 l32 -91 -30 -41 c-32 -46 -74 -67 -100 -51 -9 6 -22 35 -29 64 -9 40 -19
59 -40 74 -86 61 -126 111 -153 191 -17 52 -33 81 -43 83 -22 4 -155 -86 -197
-133 -39 -45 -64 -97 -90 -190 -23 -79 -79 -180 -100 -180 -16 0 -91 189 -143
360 -32 106 -35 112 -97 173 -54 54 -68 63 -90 58 -14 -4 -60 -9 -101 -12 -66
-6 -81 -4 -125 17 -28 13 -87 59 -133 104 -81 76 -84 79 -99 60 -10 -13 -13
-35 -10 -65 3 -41 21 -78 94 -198 6 -9 23 -4 66 23 l58 35 45 -26 c24 -14 47
-30 50 -35 11 -18 -167 -298 -220 -348 -32 -30 -62 -23 -118 27 -72 65 -112
139 -143 264 -24 96 -33 116 -61 143 -18 16 -45 56 -60 88 -14 32 -28 57 -29
55 -2 -2 3 -32 10 -68 7 -36 19 -105 26 -155 7 -57 26 -127 51 -190 48 -124
137 -294 161 -309 14 -9 32 -4 89 27 39 21 72 36 74 34 2 -2 -34 -84 -80 -183
-105 -225 -136 -321 -136 -417 0 -56 6 -84 25 -125 29 -63 32 -127 7 -162 -9
-14 -47 -54 -83 -90 -73 -73 -98 -119 -153 -284 -76 -228 -179 -366 -272 -366
-41 0 -105 72 -134 150 -26 68 -32 164 -17 276 7 58 6 61 -16 71 -27 12 -57
68 -57 105 0 14 11 52 25 86 30 74 31 106 5 167 -40 93 -53 166 -56 306 -3
178 -6 186 -104 219 l-75 25 -3 49 c-5 72 32 310 73 469 159 626 555 1177
1100 1533 343 223 708 355 1135 410 139 17 526 12 670 -10z m759 -236 l39 -19
-16 -44 c-14 -38 -14 -52 -3 -99 17 -69 10 -180 -13 -233 l-18 -40 -33 67
c-18 37 -35 76 -38 87 -3 11 -21 30 -41 42 -54 32 -62 52 -36 101 22 42 107
158 116 158 3 0 22 -9 43 -20z m-424 -325 c1 -84 1 -85 37 -122 36 -38 58 -93
58 -146 0 -15 12 -46 27 -68 l26 -40 -18 -74 c-16 -62 -17 -80 -6 -115 11 -39
11 -43 -18 -79 -17 -21 -37 -44 -46 -51 -13 -11 -138 -40 -173 -40 -27 0 24
52 94 95 l69 42 -3 149 c-3 133 -6 159 -32 239 -16 50 -38 126 -48 169 l-19
80 26 23 c14 12 26 22 26 23 0 0 0 -38 0 -85z m-20 -385 c18 -20 18 -21 -6
-46 -30 -29 -59 -24 -59 11 0 56 31 73 65 35z m-785 -1428 c12 -31 28 -85 36
-120 14 -61 14 -66 -6 -103 -11 -22 -20 -48 -20 -58 0 -36 80 -75 244 -121 86
-24 156 -47 156 -51 0 -11 -85 -29 -141 -29 -66 0 -132 35 -264 138 l-97 77
-43 100 c-64 151 -63 142 -16 155 38 10 40 13 47 58 3 26 9 50 11 55 11 19 73
-48 93 -101z m371 84 c20 -14 42 -38 49 -55 11 -27 10 -34 -9 -63 -40 -65 -69
-124 -87 -180 -10 -32 -21 -58 -25 -58 -3 0 -27 9 -53 21 -39 17 -51 29 -73
73 l-26 53 89 117 c49 64 91 116 94 116 3 0 21 -11 41 -24z m631 -277 c201
-41 238 -61 310 -169 31 -47 61 -98 67 -113 10 -26 9 -28 -12 -21 -69 20 -88
37 -117 100 -31 70 -54 82 -65 34 -15 -70 -74 -80 -143 -25 -24 19 -53 37 -64
41 -16 5 -19 12 -15 34 6 26 2 29 -92 74 -83 39 -99 50 -104 73 -9 49 1 55 48
27 28 -16 94 -35 187 -55z m197 -455 c12 -48 36 -80 71 -97 17 -8 30 -28 39
-57 7 -25 38 -95 69 -156 52 -107 55 -114 49 -169 -8 -79 -46 -151 -119 -223
-76 -76 -162 -122 -229 -122 -64 0 -97 14 -135 58 -31 36 -31 37 -16 69 23 49
8 50 -45 4 l-47 -42 -14 28 c-48 95 -159 146 -239 111 -15 -7 -67 -38 -115
-69 -83 -54 -150 -79 -213 -79 -24 0 -25 2 -25 80 0 55 -7 100 -21 143 -26 77
-22 124 18 210 34 71 45 77 144 77 58 0 73 13 129 117 30 57 48 76 111 120 53
38 77 62 83 83 8 26 13 30 35 26 24 -5 116 -17 166 -21 15 -2 20 -9 18 -31 -2
-36 73 -148 102 -152 11 -1 35 7 53 18 l34 21 -7 102 -7 102 50 -55 c32 -35
54 -70 61 -96z m-2524 -99 c9 -97 -5 -158 -69 -290 l-54 -110 -16 37 c-44 101
-44 181 1 280 14 32 23 64 20 72 -4 9 13 32 45 62 59 55 64 52 73 -51z"/>
</g>
</svg>
